<svg width="35" height="35" viewBox="0 0 35 35" fill="none" xmlns="http://www.w3.org/2000/svg">
<path d="M11.6667 2.91667V7.29167M23.3333 2.91667V7.29167M32.0833 32.0833L30.625 30.625M5.10417 13.2562H29.8958M19.4979 32.0833H11.6667C6.5625 32.0833 4.375 29.1667 4.375 24.7917V12.3958C4.375 8.02084 6.5625 5.10417 11.6667 5.10417H23.3333C28.4375 5.10417 30.625 8.02084 30.625 12.3958V18.9583M17.4934 19.9792H17.5065M12.0959 19.9792H12.109M12.0959 24.3542H12.109M31.2083 26.5417C31.2083 29.119 29.119 31.2083 26.5417 31.2083C23.9643 31.2083 21.875 29.119 21.875 26.5417C21.875 23.9644 23.9643 21.875 26.5417 21.875C29.119 21.875 31.2083 23.9644 31.2083 26.5417Z" stroke="#3D3C3C" stroke-width="1.5" stroke-linecap="round" stroke-linejoin="round"/>
</svg>
