<svg width="28" height="25" viewBox="0 0 28 25" fill="none" xmlns="http://www.w3.org/2000/svg">
<path d="M19.4011 21.1681C19.2351 21.1681 19.069 21.0964 18.938 20.9428L13.2402 14.2657C12.3138 13.1801 12.3138 11.3982 13.2402 10.3127L18.938 3.63555C19.1914 3.33856 19.6109 3.33856 19.8643 3.63555C20.1177 3.93254 20.1177 4.42411 19.8643 4.72109L14.1665 11.3982C13.747 11.8898 13.747 12.6886 14.1665 13.1801L19.8643 19.8572C20.1177 20.1542 20.1177 20.6458 19.8643 20.9428C19.7332 21.0862 19.5672 21.1681 19.4011 21.1681Z" fill="#787486"/>
<path d="M13.1084 21.1681C12.9424 21.1681 12.7763 21.0964 12.6452 20.9428L6.94743 14.2657C6.0211 13.1801 6.0211 11.3982 6.94743 10.3127L12.6452 3.63555C12.8987 3.33856 13.3181 3.33856 13.5716 3.63555C13.825 3.93254 13.825 4.42411 13.5716 4.72109L7.87376 11.3982C7.45429 11.8898 7.45429 12.6886 7.87376 13.1801L13.5716 19.8572C13.825 20.1542 13.825 20.6458 13.5716 20.9428C13.4405 21.0862 13.2744 21.1681 13.1084 21.1681Z" fill="#787486"/>
</svg>
