<svg width="35" height="35" viewBox="0 0 35 35" fill="none" xmlns="http://www.w3.org/2000/svg">
<path d="M17.5 21.875C19.9162 21.875 21.875 19.9162 21.875 17.5C21.875 15.0838 19.9162 13.125 17.5 13.125C15.0838 13.125 13.125 15.0838 13.125 17.5C13.125 19.9162 15.0838 21.875 17.5 21.875Z" stroke="#787486" stroke-width="1.5" stroke-miterlimit="10" stroke-linecap="round" stroke-linejoin="round"/>
<path d="M2.91675 18.7833V16.2167C2.91675 14.7 4.15633 13.4458 5.68758 13.4458C8.32716 13.4458 9.40633 11.5792 8.07925 9.28958C7.32091 7.97708 7.773 6.27083 9.10008 5.5125L11.623 4.06875C12.7751 3.38333 14.2626 3.79166 14.948 4.94375L15.1084 5.22083C16.4209 7.51041 18.5792 7.51041 19.9063 5.22083L20.0667 4.94375C20.7522 3.79166 22.2397 3.38333 23.3917 4.06875L25.9147 5.5125C27.2417 6.27083 27.6938 7.97708 26.9355 9.28958C25.6084 11.5792 26.6876 13.4458 29.3272 13.4458C30.8438 13.4458 32.098 14.6854 32.098 16.2167V18.7833C32.098 20.3 30.8584 21.5542 29.3272 21.5542C26.6876 21.5542 25.6084 23.4208 26.9355 25.7104C27.6938 27.0375 27.2417 28.7292 25.9147 29.4875L23.3917 30.9312C22.2397 31.6167 20.7522 31.2083 20.0667 30.0562L19.9063 29.7792C18.5938 27.4896 16.4355 27.4896 15.1084 29.7792L14.948 30.0562C14.2626 31.2083 12.7751 31.6167 11.623 30.9312L9.10008 29.4875C7.773 28.7292 7.32091 27.0229 8.07925 25.7104C9.40633 23.4208 8.32716 21.5542 5.68758 21.5542C4.15633 21.5542 2.91675 20.3 2.91675 18.7833Z" stroke="#787486" stroke-width="1.5" stroke-miterlimit="10" stroke-linecap="round" stroke-linejoin="round"/>
</svg>
